<svg width="52" height="90" viewBox="0 0 52 90" fill="none" xmlns="http://www.w3.org/2000/svg">
<g id="earth" filter="url(#filter0_d_62_90)">
<g id="flame">
<path id="flame5" d="M4.47941 49.7C4.47941 49.7 5.97941 55.2 9.87941 52.8C15.8794 49.2 5.37941 42.8 9.17941 36C6.77941 36.7 2.57941 40 4.47941 49.7Z" fill="#F5CD08"/>
<path id="flame5_2" d="M45.7534 28.6578C45.7534 28.6578 44.9817 32.1336 42.9755 30.6169C39.889 28.3418 45.2904 24.2973 43.3356 20C44.5702 20.4424 46.7308 22.5278 45.7534 28.6578Z" fill="#F5CD08"/>
<path id="flame3" d="M25.0396 82C25.0396 82 11 80.5 8.6543 61.4518C13.5 44.5 21.8349 46.1047 16 37C11.0459 29.2318 16.0121 27.5388 18.324 24.4482C23.3883 17.5153 19.9754 13.9235 19.2048 11C22.5075 12.0859 25.2598 13.84 26.4708 15.5941C27.902 19.1859 27.3516 22.6941 25.0396 27.1212C22.7277 31.5482 28.4525 31.7153 31.7552 29.2094C35.058 26.7035 35.1681 26.7871 37.0397 24.7824C40.0121 26.8706 39.5718 29.3765 40.7828 31.5482C42.5443 34.8059 43.425 37.3118 40.7828 42.9918C38.1406 48.7553 45.1836 54.7693 47.6085 59.9482C49.0369 65.2105 47.6085 82 25.0396 82Z" fill="#F5CD08"/>
    <circle cx="50" cy="50" r="10" />
<path id="flame2" d="M35.3261 9.3C35.3261 9.3 36.3261 13.1 39.0261 11.5C43.1261 9 35.9261 4.6 38.5261 0C36.9261 0.4 34.0261 2.6 35.3261 9.3Z" fill="#F5CD08"/>
<path id="flame1" d="M11.2259 11.6C11.2259 11.6 11.9259 14.2 13.8259 13.1C16.7259 11.4 11.6259 8.3 13.5259 5C12.3259 5.3 10.3259 6.9 11.2259 11.6Z" fill="#F5CD08"/>
</g>
<g id="earth_2">
<path id="Vector" fill-rule="evenodd" clip-rule="evenodd" d="M18.2177 49.5425L14.5653 53.8383L12.2172 57.6085L11.5216 61.2028L11.3479 65.0608L12.8262 69.4449L15.6958 73.3894L19.174 76.4574L24.6523 78.2119L29.0879 78.5617L34.7391 77.2468L39.8692 74.1789L42.8258 70.4957L44.2177 65.4119V60.1509L43.1741 56.0301L40.5658 52.6111L37.5215 50.1561L34.5649 48.8413L31.6961 47.9643L28.1307 47.4385L25.6952 47.3508L22.2177 48.0522L18.2177 49.5425Z" fill="#26BCD6"/>
<path id="Vector_2" fill-rule="evenodd" clip-rule="evenodd" d="M33.6955 50.4195L31.6961 49.6303L29.3484 49.1919L27.1735 49.3675L25.783 50.4195L25.9571 52.0851L27.8701 53.5755L30.7389 55.0659L33.5213 57.3454L36.0432 59.9755L37.3487 62.6053L37.7834 64.6225L37.6956 66.8139L37.4351 67.7775L38.3923 68.1287L39.3481 66.8139L39.9569 64.7096V62.6938L39.5222 59.4496L37.7834 55.0659L35.5221 51.9971L33.6955 50.4195Z" fill="#CCEAEE"/>
<path id="Vector_3" fill-rule="evenodd" clip-rule="evenodd" d="M18.5653 49.8933L17.8698 51.033L17.9567 52.6987L19.3479 54.3646L23.087 56.0302L26.566 57.17L28.9137 58.6604L30.9131 61.0277L32.0445 63.2192L32.8275 65.4991L33.435 68.7426V72.5129L32.8275 75.0555L31.6961 76.8957L29.609 78.2119L26.6524 78.3861L21.8698 77.5096L17.9567 75.7564L15.0001 73.0397L12.6522 69.2694L11.3479 63.746L11.9565 59.1866L13.1741 55.2411L15.3479 52.3479L18.5653 49.8933Z" fill="#26BCD6"/>
<path id="Vector_4" fill-rule="evenodd" clip-rule="evenodd" d="M38.827 51.3835L39.3481 54.0138L38.5665 55.5916L39.957 56.8192L42.2169 59.7122L42.1319 61.2903L44.3918 62.6051L43.4346 57.2576L41.523 53.663L38.827 51.3835Z" fill="#EDEDED"/>
<path id="Vector_5" fill-rule="evenodd" clip-rule="evenodd" d="M12.3913 69.3563L14.8261 66.2883L14.9132 69.7075L16.2173 70.0586L16.3042 74.0902L13.7825 71.8117L12.3913 69.3563Z" fill="#54B948"/>
<path id="Vector_6" fill-rule="evenodd" clip-rule="evenodd" d="M41.4353 71.9859L41.5231 69.7946L40.6522 68.1285L39.1754 66.551L39.5223 62.4295L41.87 61.553L44.0435 61.6415L44.2177 65.0606L43.3483 69.0051L41.4353 71.9859Z" fill="#54B948"/>
<path id="Vector_7" fill-rule="evenodd" clip-rule="evenodd" d="M24.3915 78.0363L27.1735 76.8957L30.0437 76.633L33.8696 76.1062L33.3471 77.5981L29.8695 78.3861L26.7388 78.6502L24.3915 78.0363Z" fill="#CCEAEE"/>
<path id="Vector_8" fill-rule="evenodd" clip-rule="evenodd" d="M12.4783 57.6084L13.7825 58.6603L13.1741 61.553L11.3479 62.7808L12.4783 57.6084Z" fill="#54B948"/>
<path id="Vector_9" fill-rule="evenodd" clip-rule="evenodd" d="M28.1307 75.5808L27.4355 72.3373L27.6096 70.3201L25.0002 68.3914L25.4347 66.4641L25.8694 64.7967L28.5654 63.4833L31.6961 62.4297L33.6955 62.6053L36.3037 63.6574L36.3915 65.9373L35.8705 69.9703L34.0438 70.5828H33.1744L31.2614 71.6363L30.4784 73.3009L30.1301 74.6158L28.3912 76.1947L28.1307 75.5808Z" fill="#54B948"/>
<path id="Vector_10" fill-rule="evenodd" clip-rule="evenodd" d="M20.5652 60.8522L21.7828 62.2555L22.4784 62.9565L26.3041 64.7096L27.6096 64.0972L27.0871 63.6575L27.3477 61.9044L26.2177 61.2905L25.0873 62.5182L23.8697 61.8158L24.2175 60.3264L20.5652 60.8522Z" fill="#54B948"/>
<path id="Vector_11" fill-rule="evenodd" clip-rule="evenodd" d="M23.3482 48.9289L26.0435 48.6655L27.0871 48.9289L26.566 49.9808L24.9131 49.5424H23.8697L23.3482 48.9289Z" fill="#54B948"/>
<path id="Vector_12" fill-rule="evenodd" clip-rule="evenodd" d="M23.5219 50.5067L21.1741 51.4714L20.5652 52.8741L18.2177 55.5917L18.3913 57.1699L18.2177 59.0111L19.0003 61.2028L20.0437 63.0436L20.3915 60.94L21.7828 62.5182L24.0437 60.677L26.304 59.3617L27.696 59.0111L28.479 61.1151L29.2606 59.0111L30.2178 58.4852L31.6083 56.907L33.8696 54.6275L33.3471 53.3999L30.13 55.5917L31.2614 53.4877L33.4349 51.5593L31.5219 50.2439L29.7831 50.8575L28.1307 52.7863V54.8905L27.4354 55.0659L26.8265 53.8383H25.0873L24.9131 52.8741L25.2605 51.2081L24.9131 50.6823L23.5219 50.5067Z" fill="#49A942"/>
<path id="Vector_13" fill-rule="evenodd" clip-rule="evenodd" d="M28.0443 47.263L25.5224 47L22.9132 47.4384L20.4786 48.1398L18.9132 48.929L17.3478 49.9808L15.7827 51.2958L14.1304 53.3998L13.1741 54.8029L12.2172 56.7314L11.5216 58.4851L11.0872 60.8521L11.0001 63.0435L11.2608 65.7616L11.9565 68.1286L12.8262 70.4956L13.9567 72.3372L15.435 74.0903L17.087 75.5807L19.174 76.8956L21.3478 77.7735L23.7829 78.4745L26.3918 78.9128L28.8273 78.9999L31.3478 78.7372L34.3044 77.9477L36.2188 77.2468L38.5665 75.6692L40.6522 73.9147L41.7836 72.4243L43.1741 70.0587L43.6966 68.1286L43.7829 66.9009L43.3482 66.1128L43.1741 67.4277L42.8257 68.8296L41.87 70.32L41.7836 69.2693L41.1747 69.4449L41.2611 70.4085L41.3489 71.4607L39.957 72.7755L39.0875 73.9147L37.5215 74.9669L35.9568 75.9319L34.7391 76.72L32.305 77.3338L29.6968 77.685L27.2613 77.7735L24.8265 77.5979L22.9132 76.8956L20.2175 76.0204L18.4783 74.8798L16.9999 73.5635L14.9132 71.8118L13.6088 69.7075L12.8262 68.0415L12.2172 66.1128L11.9565 64.4468L11.8694 63.0435L12.1305 61.1151L12.4783 59.2739L13.261 57.0821L14.5653 54.5396L15.8695 52.874L17.1741 51.2958L19.0003 49.8054L21.1741 48.8412L23.0869 48.1398L25.783 47.7014L28.0443 47.263Z" fill="black"/>
<path id="Vector_14" fill-rule="evenodd" clip-rule="evenodd" d="M30.6525 47.5261L33.6091 48.3149L35.6963 49.1041L37.7834 50.0686L39.6086 51.3835L42.1319 53.9261L43.4346 56.2056L44.2176 57.9589L44.7401 59.8878L45.0007 61.9041L44.8265 64.1826L44.3054 66.6381L44.0435 65.1477L43.6088 63.5702L43.6966 61.9041L43.5224 59.3616L42.9999 57.696L42.2169 56.03L41.3489 54.5395L40.2175 53.3997L37.9562 51.2957L36.0432 50.0686L33.956 49.2794L31.6083 48.3149L30.6525 47.5261Z" fill="black"/>
<path id="Vector_15" fill-rule="evenodd" clip-rule="evenodd" d="M12.8261 56.8192L14.5653 55.2409L15.6958 54.6274L17.4349 53.663L19.5216 52.611L20.4785 52.4355V52.7862L18.9132 53.5753L16.8262 54.7152L14.8261 56.1178L12.3913 57.696L12.8261 56.8192Z" fill="black"/>
<path id="Vector_16" fill-rule="evenodd" clip-rule="evenodd" d="M11.6956 62.8693L12.2171 62.0799L12.9999 61.8158L13.6088 61.6416L13.6956 61.2027L13.8696 59.8879L14.2175 58.7481L14.1304 58.2219L12.565 57.4329L12.2171 58.3097L13.1741 58.5727V59.3617L12.9132 60.2385L12.7392 61.1151L12.3042 61.5531L11.5216 61.7287L11.6956 62.8693Z" fill="black"/>
<path id="Vector_17" fill-rule="evenodd" clip-rule="evenodd" d="M11.6957 65.586L13.087 64.097L14.8261 62.4296L16.6523 61.115L18.3913 60.1508L20.2175 59.3616L22.2177 58.748L16.9999 61.9042L15.435 63.0434L14.3045 63.8329L12.9999 65.0606L11.7828 66.2884L11.6957 65.586Z" fill="black"/>
<path id="Vector_18" fill-rule="evenodd" clip-rule="evenodd" d="M12.6522 69.0052L13.6956 67.0779L14.8261 65.9373L15.435 66.2884L15.1739 69.532H16.0436L16.5652 69.9703L16.7394 70.9339L16.8262 72.3372L18.2177 70.8468L19.7829 69.7076L21.522 68.8296L23.3482 67.866L25.783 66.9009L28.0443 66.6382H29.609L29.0001 67.1636L25.9572 67.866L23.9567 68.5669L22.3046 69.4449L20.5652 70.32L18.9132 71.4607L17.1741 73.0396L16.9999 74.353L16.0436 73.4765V70.9339L15.9565 70.4956L15.3479 70.1444H14.739L14.4782 69.7076L14.5653 67.3406L14.0434 68.1286L13.7825 68.8296L13.1741 69.7947L12.6522 69.0052Z" fill="black"/>
<path id="Vector_19" fill-rule="evenodd" clip-rule="evenodd" d="M17.1741 56.4685L16.7394 57.6083L16.4784 59.3616L16.3043 61.5529L16.5652 63.6572L16.8262 65.5859L17.1741 67.3405L17.7825 68.918L18.5653 71.1094L19.5217 72.6883L20.6523 74.0902L22.3046 75.6691L25.1741 78.2117L27.4354 78.4744L26.3919 77.4222L27.5218 77.071L29.5226 76.8084L30.1301 77.071H31.0009L31.7825 76.7199L33.1744 76.5443V77.4222L34.5649 76.4572L36.3037 75.0553L37.7834 73.5634L38.827 72.4242L39.6086 70.8467L38.9134 70.9338L38.4787 71.5476L37.6093 72.5127L36.9126 73.6519L35.0874 75.1423L33.7833 76.0203H32.305L31.2614 76.1945L30.5648 76.3701L31.0009 75.5806L31.6083 74.0902L31.0873 74.4414L30.3906 75.4935L29.9573 76.106L27.9565 76.5443L26.9129 76.8084H25.8694L24.8265 76.3701L23.7829 75.6691L22.4784 74.4414L21.3478 73.2136L20.2175 71.8117L19.3479 70.4955L18.5653 68.8295L18.0434 67.252L17.6088 65.8486L17.3478 64.0969L17.1741 61.9912L16.9999 59.7122L17.2612 58.1344L17.3478 57.1697L17.1741 56.4685Z" fill="black"/>
<path id="Vector_20" fill-rule="evenodd" clip-rule="evenodd" d="M23.2611 47.6135L21.6957 48.7533L20.6523 49.718L18.9132 51.8218L18.0433 53.9261L19.0003 53.3124L19.8695 51.9098L21.0002 50.5066L21.9568 49.4546L23.0003 48.5782L24.2174 47.7013L23.2611 47.6135Z" fill="black"/>
<path id="Vector_21" fill-rule="evenodd" clip-rule="evenodd" d="M26.3041 47.877L27.696 48.6656L28.7396 49.4547L29.609 50.2438L30.5648 51.5592L31.6083 53.5754L32.2172 55.5043L33.0003 57.6084L33.435 60.3263V63.92L33.3472 66.7267L33.0866 68.3042L32.8275 70.0588L32.2172 71.899L31.6083 73.5635L32.305 73.0396L33.0866 71.2851L33.7833 68.8296L34.1302 65.9373L34.3044 63.92L34.0438 60.9399L33.8697 58.3097L33.3472 56.3808L32.7397 54.5397L31.6961 52.085L30.9131 50.5946L29.6968 49.2795L28.479 48.4904L27.696 47.7891L26.3041 47.877Z" fill="black"/>
<path id="Vector_22" fill-rule="evenodd" clip-rule="evenodd" d="M24.6523 57.871L27.1735 57.1697L29.6968 56.8191L31.6083 56.7313L33.6091 56.5562L36.131 56.9068L38.044 57.3452L41.4353 58.485L42.6516 59.2737L44.4782 60.852L44.2177 62.8692L43.2619 62.3424L42.9135 61.6414L43.2619 61.2026L42.7394 60.5013L41.2611 59.3615L39.8692 58.8358L37.8698 58.1344L35.7827 57.696L34.0438 57.5204L32.0445 57.3452L29.9573 57.4327L27.8702 57.7833L26.3919 58.0467L24.3046 58.5725L24.6523 57.871Z" fill="black"/>
<path id="Vector_23" fill-rule="evenodd" clip-rule="evenodd" d="M28.217 63.4831L29.7831 62.8692L31.0872 62.3425L33.0866 62.2554L32.8275 62.8692H31.4356L30.13 63.3075L28.3912 64.1826L28.217 63.4831Z" fill="black"/>
<path id="Vector_24" fill-rule="evenodd" clip-rule="evenodd" d="M31.6083 66.9009L33.6091 66.6382L36.131 66.8138L37.6093 67.2521L38.9134 67.8659L40.4781 69.4449L40.9142 70.32L41.2611 72.5128L39.0012 74.4415L39.6964 72.864L39.957 71.5477L39.8692 70.1444L39.2603 69.0937L38.3045 68.4798L37.0868 67.953L35.8704 67.6903L34.3922 67.3406H32.5655L31.6083 67.4277V66.9009Z" fill="black"/>
<path id="Vector_25" fill-rule="evenodd" clip-rule="evenodd" d="M35.001 62.5181L35.4357 63.0434H36.5657L37.0004 63.6573L36.9126 65.3233L36.5657 67.3405L36.3915 69.0936L36.131 70.1444L35.0874 70.6711H33.0002L33.0866 70.1444L34.0438 70.32L35.0874 69.8831L35.6963 69.1807L35.8704 67.4276L36.2188 65.0606L36.131 63.8329L35.5221 63.6573L34.9132 63.3946L35.001 62.5181Z" fill="black"/>
<path id="Vector_26" fill-rule="evenodd" clip-rule="evenodd" d="M27.8701 74.6156L27.9565 75.9318L28.3912 76.1945L29.3484 75.4935L30.5647 74.7041L31.0872 73.9146L31.0009 73.1266L31.4356 72.3371L32.1308 71.4606L31.6961 70.8467L31.0872 71.6361L30.5647 72.25L30.2178 73.0395L30.13 73.9146L29.8695 74.4414L29.1742 74.9668L28.6517 75.405L28.3048 74.3529L27.8701 74.6156Z" fill="black"/>
<path id="Vector_27" fill-rule="evenodd" clip-rule="evenodd" d="M39.0875 51.9971L39.7828 53.5754L40.6522 54.8904L41.4352 56.2935L41.7836 57.1699L43.2619 56.9069L43.3482 57.5205L42.1319 57.8711L42.3047 59.5371L42.4788 61.8158L42.3047 63.92L42.0441 65.3234L41.2611 67.5148V66.6382L41.6958 63.92L41.7836 61.7287V60.0631L41.3489 58.2219L41.0005 56.8193L40.3917 55.5917L39.6086 54.5397L38.9134 55.5043L39.6086 56.2935L40.3053 56.7315L40.2175 57.1699L39.5222 57.0821L38.4787 56.2935L37.9562 55.5917L38.4787 54.8029L39.0875 53.9262L38.6528 52.7863L38.044 52.1727L36.5657 51.3836L34.218 50.7701L30.5647 50.5946H27.0007L24.6523 51.0329L23.696 51.2958L23.2611 50.9452L24.5652 50.5946L27.5218 50.0687L29.8695 49.8054L33.1744 49.9809L35.6963 50.5067L38.3923 50.9452L39.0875 51.9971Z" fill="black"/>
<path id="Vector_28" fill-rule="evenodd" clip-rule="evenodd" d="M22.3046 63.1319L24.9131 64.097L25.8694 64.4468L25.2605 65.8487L24.5652 67.7774L24.3915 68.5668L25.0002 69.0936L26.3919 69.8831L27.2613 70.32V72.6884L27.696 73.7391L27.8701 72.8639L27.7824 71.5477L28.0443 70.7582L27.8701 69.8831L26.9129 69.4448L26.1313 68.8295L25.1741 68.3042L25.6952 66.1128L26.566 65.0606L26.3041 64.1827L25.0002 63.3946L23.6087 62.8693L22.9132 62.5181L22.3046 63.1319Z" fill="black"/>
<path id="Vector_29" fill-rule="evenodd" clip-rule="evenodd" d="M21.8697 62.2555L21.6957 61.5531L21.2607 60.6769L20.7394 60.2385L19.7829 60.5015L19.435 61.466L19.174 61.1151L18.6523 61.2027V61.5531L19.435 62.6052L20.0437 63.3076L20.6523 63.132L20.4785 62.5181L20.2174 61.7287L20.1306 61.1151L20.5652 60.9399L20.9131 61.6416L21.4349 62.4296L21.8697 62.6937V62.2555Z" fill="black"/>
<path id="Vector_30" fill-rule="evenodd" clip-rule="evenodd" d="M21.6957 52.3479L20.6523 53.5755L19.6087 54.3645L18.6524 55.855L19.0003 56.2935V57.0821L18.739 57.8712L18.5653 58.9233L18.6524 60.5893L18.0434 59.888L17.6957 58.5727L18.0434 57.2577L18.1304 56.5564L17.8698 56.0301L18.1304 55.2411L18.9132 54.2769L20.2175 53.1371L21.6091 51.9099L21.6957 52.3479Z" fill="black"/>
<path id="Vector_31" fill-rule="evenodd" clip-rule="evenodd" d="M20.8265 51.2959L21.9569 50.6823L23.087 50.2439L23.8697 50.3317L23.4349 50.6823L22.3914 51.1207L21.522 51.2959L20.8265 51.9971V51.2959Z" fill="black"/>
<path id="Vector_32" fill-rule="evenodd" clip-rule="evenodd" d="M24.9132 51.2959L25.0003 51.822L24.7394 52.4357L24.6523 53.1371L24.8265 53.7511L25.2605 54.189L26.0435 54.2769L26.6524 54.189L26.913 55.066L27.696 55.4166L28.3049 55.066L28.5654 54.2769L28.6518 52.962L29.5226 51.9099L29.4348 50.9453L28.8274 51.2959L28.479 51.9972L27.696 52.8742L27.8702 53.7511L27.7824 54.6275L27.4355 54.3646L27.2613 53.5755L26.566 53.1371L26.0435 53.5755L25.5225 53.3126L25.4347 52.5235L25.9572 51.2959L25.5225 51.033L24.9132 51.2959Z" fill="black"/>
<path id="Vector_33" fill-rule="evenodd" clip-rule="evenodd" d="M31.9566 50.3315L33.0866 51.0328L34.0438 51.2958L33.956 51.9098L32.5655 52.9618L30.7389 54.7152L33.4349 53.1369L33.956 53.4876L34.218 54.978L33.6091 55.4164L32.9138 55.5916L31.8703 56.8192L31.0872 57.959L30.5647 58.748L29.7831 59.2738L29.1742 59.3616L29.2606 60.1508L29.0001 61.115L28.3912 61.2903L28.0443 60.9398L27.7823 60.3262L27.6959 59.7122L27.1734 59.3616L26.2177 59.7122L25.2605 60.3262L25.0873 59.7122L26.3918 58.9232L27.5218 58.5726L28.217 58.748V59.5371L28.479 60.5014L28.6517 59.7122L28.9137 58.9232L29.9573 58.5726L31.0008 57.6084L31.6083 56.5562L32.8275 55.2409L33.0866 54.5396L33.0002 53.9261L32.1308 54.5396L30.9131 55.3286L30.13 55.9426L29.6089 55.3286L30.7389 53.9261L31.6961 52.874L33.0002 51.9098L32.1308 51.208L31.3478 50.3315H31.9566Z" fill="black"/>
<path id="Vector_34" fill-rule="evenodd" clip-rule="evenodd" d="M42.1319 60.8521L39.0875 62.2554L39.2603 63.6573L39.0012 65.1477L38.827 66.1128L38.6528 66.9008L39.5222 67.5147L40.8264 68.4798L41.3489 68.3913L41.0005 67.8659L40.3053 67.0779L39.5222 66.6381L39.7828 64.885L40.1311 63.3075L40.3053 62.6052L41.3489 61.9042L42.1319 61.7286V60.8521Z" fill="black"/>
<path id="Vector_35" fill-rule="evenodd" clip-rule="evenodd" d="M24.3045 60.063L23.7829 60.9398V61.9042L24.4786 62.518L25.3483 62.8692L25.9571 62.3425L26.2177 61.8157L26.9129 62.2554L26.3041 62.6051L26.2177 63.219L26.566 63.6573L27.6096 64.2712L27.7823 63.7458L27.3476 63.3946L27.2613 63.0434L27.6096 62.6051L27.696 62.1669L27.3476 61.4659L26.7388 61.0275L26.0435 61.115L25.5224 61.8157L25.0873 62.0798L24.3915 61.7286L24.4786 61.115L24.8265 60.5014L24.3045 60.063Z" fill="black"/>
<path id="Vector_36" fill-rule="evenodd" clip-rule="evenodd" d="M23.3482 48.7534L25.3483 48.4904L26.3918 48.3149L27.2613 48.7534L26.6524 50.5066L26.0435 49.9808L24.8265 49.8054L23.7829 49.5424L24.4786 49.2794L25.6088 49.3674L26.2177 49.5424L26.6524 49.0163L25.6952 48.929H24.8265L23.2611 49.2794L23.3482 48.7534Z" fill="black"/>
<path id="Vector_37" fill-rule="evenodd" clip-rule="evenodd" d="M18.2177 49.5425L14.5653 53.8383L12.2172 57.6085L11.5216 61.2028L11.3479 65.0608L12.8262 69.4449L15.6958 73.3894L19.174 76.4574L24.6523 78.2119L29.0879 78.5617L34.7391 77.2468L39.8692 74.1789L42.8258 70.4957L44.2177 65.4119V60.1509L43.1741 56.0301L40.5658 52.6111L37.5215 50.1561L34.5649 48.8413L31.6961 47.9643L28.1307 47.4385L25.6952 47.3508L22.2177 48.0522L18.2177 49.5425Z" fill="#7ED0E0"/>
<path id="Vector_38" fill-rule="evenodd" clip-rule="evenodd" d="M33.6955 50.4195L31.6961 49.6303L29.3484 49.1919L27.1735 49.3675L25.783 50.4195L25.9571 52.0851L27.8701 53.5755L30.7389 55.0659L33.5213 57.3454L36.0432 59.9755L37.3487 62.6053L37.7834 64.6225L37.6956 66.8139L37.4351 67.7775L38.3923 68.1287L39.3481 66.8139L39.9569 64.7096V62.6938L39.5222 59.4496L37.7834 55.0659L35.5221 51.9971L33.6955 50.4195Z" fill="#CCEAEE"/>
<path id="Vector_39" fill-rule="evenodd" clip-rule="evenodd" d="M18.5653 49.8933L17.8698 51.033L17.9567 52.6987L19.3479 54.3646L23.087 56.0302L26.566 57.17L28.9137 58.6604L30.9131 61.0277L32.0445 63.2192L32.8275 65.4991L33.435 68.7426V72.5129L32.8275 75.0555L31.6961 76.8957L29.609 78.2119L26.6524 78.3861L21.8698 77.5096L17.9567 75.7564L15.0001 73.0397L12.6522 69.2694L11.3479 63.746L11.9565 59.1866L13.1741 55.2411L15.3479 52.3479L18.5653 49.8933Z" fill="#26BCD6"/>
<path id="Vector_40" fill-rule="evenodd" clip-rule="evenodd" d="M38.827 51.3835L39.3481 54.0138L38.5665 55.5916L39.957 56.8192L42.2169 59.7122L42.1319 61.2903L44.3918 62.6051L43.4346 57.2576L41.523 53.663L38.827 51.3835Z" fill="#73C167"/>
<path id="Vector_41" fill-rule="evenodd" clip-rule="evenodd" d="M12.3913 69.3563L14.8261 66.2883L14.9132 69.7075L16.2173 70.0586L16.3042 74.0902L13.7825 71.8117L12.3913 69.3563Z" fill="#54B948"/>
<path id="Vector_42" fill-rule="evenodd" clip-rule="evenodd" d="M41.4353 71.9859L41.5231 69.7946L40.6522 68.1285L39.1754 66.551L39.5223 62.4295L41.87 61.553L44.0435 61.6415L44.2177 65.0606L43.3483 69.0051L41.4353 71.9859Z" fill="#54B948"/>
<path id="Vector_43" fill-rule="evenodd" clip-rule="evenodd" d="M24.3915 78.0363L27.1735 76.8957L30.0437 76.633L33.8696 76.1062L33.3471 77.5981L29.8695 78.3861L26.7388 78.6502L24.3915 78.0363Z" fill="white"/>
<path id="Vector_44" fill-rule="evenodd" clip-rule="evenodd" d="M12.4783 57.6084L13.7825 58.6603L13.1741 61.553L11.3479 62.7808L12.4783 57.6084Z" fill="#54B948"/>
<path id="Vector_45" fill-rule="evenodd" clip-rule="evenodd" d="M28.1307 75.5808L27.4355 72.3373L27.6096 70.3201L25.0002 68.3914L25.4347 66.4641L25.8694 64.7967L28.5654 63.4833L31.6961 62.4297L33.6955 62.6053L36.3037 63.6574L36.3915 65.9373L35.8705 69.9703L34.0438 70.5828H33.1744L31.2614 71.6363L30.4784 73.3009L30.1301 74.6158L28.3912 76.1947L28.1307 75.5808Z" fill="#54B948"/>
<path id="Vector_46" fill-rule="evenodd" clip-rule="evenodd" d="M20.5652 60.8522L21.7828 62.2555L22.4784 62.9565L26.3041 64.7096L27.6096 64.0972L27.0871 63.6575L27.3477 61.9044L26.2177 61.2905L25.0873 62.5182L23.8697 61.8158L24.2175 60.3264L20.5652 60.8522Z" fill="#54B948"/>
<path id="Vector_47" fill-rule="evenodd" clip-rule="evenodd" d="M23.3482 48.9289L26.0435 48.6655L27.0871 48.9289L26.566 49.9808L24.9131 49.5424H23.8697L23.3482 48.9289Z" fill="#54B948"/>
<path id="Vector_48" fill-rule="evenodd" clip-rule="evenodd" d="M23.5219 50.5067L21.1741 51.4714L20.5652 52.8741L18.2177 55.5917L18.3913 57.1699L18.2177 59.0111L19.0003 61.2028L20.0437 63.0436L20.3915 60.94L21.7828 62.5182L24.0437 60.677L26.304 59.3617L27.696 59.0111L28.479 61.1151L29.2606 59.0111L30.2178 58.4852L31.6083 56.907L33.8696 54.6275L33.3471 53.3999L30.13 55.5917L31.2614 53.4877L33.4349 51.5593L31.5219 50.2439L29.7831 50.8575L28.1307 52.7863V54.8905L27.4354 55.0659L26.8265 53.8383H25.0873L24.9131 52.8741L25.2605 51.2081L24.9131 50.6823L23.5219 50.5067Z" fill="#49A942"/>
<path id="Vector_49" fill-rule="evenodd" clip-rule="evenodd" d="M28.0443 47.263L25.5224 47L22.9132 47.4384L20.4786 48.1398L18.9132 48.929L17.3478 49.9808L15.7827 51.2958L14.1304 53.3998L13.1741 54.8029L12.2172 56.7314L11.5216 58.4851L11.0872 60.8521L11.0001 63.0435L11.2608 65.7616L11.9565 68.1286L12.8262 70.4956L13.9567 72.3372L15.435 74.0903L17.087 75.5807L19.174 76.8956L21.3478 77.7735L23.7829 78.4745L26.3918 78.9128L28.8273 78.9999L31.3478 78.7372L34.3044 77.9477L36.2188 77.2468L38.5665 75.6692L40.6522 73.9147L41.7836 72.4243L43.1741 70.0587L43.6966 68.1286L43.7829 66.9009L43.3482 66.1128L43.1741 67.4277L42.8257 68.8296L41.87 70.32L41.7836 69.2693L41.1747 69.4449L41.2611 70.4085L41.3489 71.4607L39.957 72.7755L39.0875 73.9147L37.5215 74.9669L35.9568 75.9319L34.7391 76.72L32.305 77.3338L29.6968 77.685L27.2613 77.7735L24.8265 77.5979L22.9132 76.8956L20.2175 76.0204L18.4783 74.8798L16.9999 73.5635L14.9132 71.8118L13.6088 69.7075L12.8262 68.0415L12.2172 66.1128L11.9565 64.4468L11.8694 63.0435L12.1305 61.1151L12.4783 59.2739L13.261 57.0821L14.5653 54.5396L15.8695 52.874L17.1741 51.2958L19.0003 49.8054L21.1741 48.8412L23.0869 48.1398L25.783 47.7014L28.0443 47.263Z" fill="black"/>
<path id="Vector_50" fill-rule="evenodd" clip-rule="evenodd" d="M30.6525 47.5261L33.6091 48.3149L35.6963 49.1041L37.7834 50.0686L39.6086 51.3835L42.1319 53.9261L43.4346 56.2056L44.2176 57.9589L44.7401 59.8878L45.0007 61.9041L44.8265 64.1826L44.3054 66.6381L44.0435 65.1477L43.6088 63.5702L43.6966 61.9041L43.5224 59.3616L42.9999 57.696L42.2169 56.03L41.3489 54.5395L40.2175 53.3997L37.9562 51.2957L36.0432 50.0686L33.956 49.2794L31.6083 48.3149L30.6525 47.5261Z" fill="black"/>
<path id="Vector_51" fill-rule="evenodd" clip-rule="evenodd" d="M12.8261 56.8192L14.5653 55.2409L15.6958 54.6274L17.4349 53.663L19.5216 52.611L20.4785 52.4355V52.7862L18.9132 53.5753L16.8262 54.7152L14.8261 56.1178L12.3913 57.696L12.8261 56.8192Z" fill="black"/>
<path id="Vector_52" fill-rule="evenodd" clip-rule="evenodd" d="M11.6956 62.8693L12.2171 62.0799L12.9999 61.8158L13.6088 61.6416L13.6956 61.2027L13.8696 59.8879L14.2175 58.7481L14.1304 58.2219L12.565 57.4329L12.2171 58.3097L13.1741 58.5727V59.3617L12.9132 60.2385L12.7392 61.1151L12.3042 61.5531L11.5216 61.7287L11.6956 62.8693Z" fill="black"/>
<path id="Vector_53" fill-rule="evenodd" clip-rule="evenodd" d="M11.6957 65.586L13.087 64.097L14.8261 62.4296L16.6523 61.115L18.3913 60.1508L20.2175 59.3616L22.2177 58.748L16.9999 61.9042L15.435 63.0434L14.3045 63.8329L12.9999 65.0606L11.7828 66.2884L11.6957 65.586Z" fill="black"/>
<path id="Vector_54" fill-rule="evenodd" clip-rule="evenodd" d="M12.6522 69.0052L13.6956 67.0779L14.8261 65.9373L15.435 66.2884L15.1739 69.532H16.0436L16.5652 69.9703L16.7394 70.9339L16.8262 72.3372L18.2177 70.8468L19.7829 69.7076L21.522 68.8296L23.3482 67.866L25.783 66.9009L28.0443 66.6382H29.609L29.0001 67.1636L25.9572 67.866L23.9567 68.5669L22.3046 69.4449L20.5652 70.32L18.9132 71.4607L17.1741 73.0396L16.9999 74.353L16.0436 73.4765V70.9339L15.9565 70.4956L15.3479 70.1444H14.739L14.4782 69.7076L14.5653 67.3406L14.0434 68.1286L13.7825 68.8296L13.1741 69.7947L12.6522 69.0052Z" fill="black"/>
<path id="Vector_55" fill-rule="evenodd" clip-rule="evenodd" d="M17.1741 56.4685L16.7394 57.6083L16.4784 59.3616L16.3043 61.5529L16.5652 63.6572L16.8262 65.5859L17.1741 67.3405L17.7825 68.918L18.5653 71.1094L19.5217 72.6883L20.6523 74.0902L22.3046 75.6691L25.1741 78.2117L27.4354 78.4744L26.3919 77.4222L27.5218 77.071L29.5226 76.8084L30.1301 77.071H31.0009L31.7825 76.7199L33.1744 76.5443V77.4222L34.5649 76.4572L36.3037 75.0553L37.7834 73.5634L38.827 72.4242L39.6086 70.8467L38.9134 70.9338L38.4787 71.5476L37.6093 72.5127L36.9126 73.6519L35.0874 75.1423L33.7833 76.0203H32.305L31.2614 76.1945L30.5648 76.3701L31.0009 75.5806L31.6083 74.0902L31.0873 74.4414L30.3906 75.4935L29.9573 76.106L27.9565 76.5443L26.9129 76.8084H25.8694L24.8265 76.3701L23.7829 75.6691L22.4784 74.4414L21.3478 73.2136L20.2175 71.8117L19.3479 70.4955L18.5653 68.8295L18.0434 67.252L17.6088 65.8486L17.3478 64.0969L17.1741 61.9912L16.9999 59.7122L17.2612 58.1344L17.3478 57.1697L17.1741 56.4685Z" fill="black"/>
<path id="Vector_56" fill-rule="evenodd" clip-rule="evenodd" d="M23.2611 47.6135L21.6957 48.7533L20.6523 49.718L18.9132 51.8218L18.0433 53.9261L19.0003 53.3124L19.8695 51.9098L21.0002 50.5066L21.9568 49.4546L23.0003 48.5782L24.2174 47.7013L23.2611 47.6135Z" fill="black"/>
<path id="Vector_57" fill-rule="evenodd" clip-rule="evenodd" d="M26.3041 47.877L27.696 48.6656L28.7396 49.4547L29.609 50.2438L30.5648 51.5592L31.6083 53.5754L32.2172 55.5043L33.0003 57.6084L33.435 60.3263V63.92L33.3472 66.7267L33.0866 68.3042L32.8275 70.0588L32.2172 71.899L31.6083 73.5635L32.305 73.0396L33.0866 71.2851L33.7833 68.8296L34.1302 65.9373L34.3044 63.92L34.0438 60.9399L33.8697 58.3097L33.3472 56.3808L32.7397 54.5397L31.6961 52.085L30.9131 50.5946L29.6968 49.2795L28.479 48.4904L27.696 47.7891L26.3041 47.877Z" fill="black"/>
<path id="Vector_58" fill-rule="evenodd" clip-rule="evenodd" d="M24.6523 57.871L27.1735 57.1697L29.6968 56.8191L31.6083 56.7313L33.6091 56.5562L36.131 56.9068L38.044 57.3452L41.4353 58.485L42.6516 59.2737L44.4782 60.852L44.2177 62.8692L43.2619 62.3424L42.9135 61.6414L43.2619 61.2026L42.7394 60.5013L41.2611 59.3615L39.8692 58.8358L37.8698 58.1344L35.7827 57.696L34.0438 57.5204L32.0445 57.3452L29.9573 57.4327L27.8702 57.7833L26.3919 58.0467L24.3046 58.5725L24.6523 57.871Z" fill="black"/>
<path id="Vector_59" fill-rule="evenodd" clip-rule="evenodd" d="M28.217 63.4831L29.7831 62.8692L31.0872 62.3425L33.0866 62.2554L32.8275 62.8692H31.4356L30.13 63.3075L28.3912 64.1826L28.217 63.4831Z" fill="black"/>
<path id="Vector_60" fill-rule="evenodd" clip-rule="evenodd" d="M31.6083 66.9009L33.6091 66.6382L36.131 66.8138L37.6093 67.2521L38.9134 67.8659L40.4781 69.4449L40.9142 70.32L41.2611 72.5128L39.0012 74.4415L39.6964 72.864L39.957 71.5477L39.8692 70.1444L39.2603 69.0937L38.3045 68.4798L37.0868 67.953L35.8704 67.6903L34.3922 67.3406H32.5655L31.6083 67.4277V66.9009Z" fill="black"/>
<path id="Vector_61" fill-rule="evenodd" clip-rule="evenodd" d="M35.001 62.5181L35.4357 63.0434H36.5657L37.0004 63.6573L36.9126 65.3233L36.5657 67.3405L36.3915 69.0936L36.131 70.1444L35.0874 70.6711H33.0002L33.0866 70.1444L34.0438 70.32L35.0874 69.8831L35.6963 69.1807L35.8704 67.4276L36.2188 65.0606L36.131 63.8329L35.5221 63.6573L34.9132 63.3946L35.001 62.5181Z" fill="black"/>
<path id="Vector_62" fill-rule="evenodd" clip-rule="evenodd" d="M27.8701 74.6156L27.9565 75.9318L28.3912 76.1945L29.3484 75.4935L30.5647 74.7041L31.0872 73.9146L31.0009 73.1266L31.4356 72.3371L32.1308 71.4606L31.6961 70.8467L31.0872 71.6361L30.5647 72.25L30.2178 73.0395L30.13 73.9146L29.8695 74.4414L29.1742 74.9668L28.6517 75.405L28.3048 74.3529L27.8701 74.6156Z" fill="black"/>
<path id="Vector_63" fill-rule="evenodd" clip-rule="evenodd" d="M39.0875 51.9971L39.7828 53.5754L40.6522 54.8904L41.4352 56.2935L41.7836 57.1699L43.2619 56.9069L43.3482 57.5205L42.1319 57.8711L42.3047 59.5371L42.4788 61.8158L42.3047 63.92L42.0441 65.3234L41.2611 67.5148V66.6382L41.6958 63.92L41.7836 61.7287V60.0631L41.3489 58.2219L41.0005 56.8193L40.3917 55.5917L39.6086 54.5397L38.9134 55.5043L39.6086 56.2935L40.3053 56.7315L40.2175 57.1699L39.5222 57.0821L38.4787 56.2935L37.9562 55.5917L38.4787 54.8029L39.0875 53.9262L38.6528 52.7863L38.044 52.1727L36.5657 51.3836L34.218 50.7701L30.5647 50.5946H27.0007L24.6523 51.0329L23.696 51.2958L23.2611 50.9452L24.5652 50.5946L27.5218 50.0687L29.8695 49.8054L33.1744 49.9809L35.6963 50.5067L38.3923 50.9452L39.0875 51.9971Z" fill="black"/>
<path id="Vector_64" fill-rule="evenodd" clip-rule="evenodd" d="M22.3046 63.1319L24.9131 64.097L25.8694 64.4468L25.2605 65.8487L24.5652 67.7774L24.3915 68.5668L25.0002 69.0936L26.3919 69.8831L27.2613 70.32V72.6884L27.696 73.7391L27.8701 72.8639L27.7824 71.5477L28.0443 70.7582L27.8701 69.8831L26.9129 69.4448L26.1313 68.8295L25.1741 68.3042L25.6952 66.1128L26.566 65.0606L26.3041 64.1827L25.0002 63.3946L23.6087 62.8693L22.9132 62.5181L22.3046 63.1319Z" fill="black"/>
<path id="Vector_65" fill-rule="evenodd" clip-rule="evenodd" d="M21.8697 62.2555L21.6957 61.5531L21.2607 60.6769L20.7394 60.2385L19.7829 60.5015L19.435 61.466L19.174 61.1151L18.6523 61.2027V61.5531L19.435 62.6052L20.0437 63.3076L20.6523 63.132L20.4785 62.5181L20.2174 61.7287L20.1306 61.1151L20.5652 60.9399L20.9131 61.6416L21.4349 62.4296L21.8697 62.6937V62.2555Z" fill="black"/>
<path id="Vector_66" fill-rule="evenodd" clip-rule="evenodd" d="M21.6957 52.3479L20.6523 53.5755L19.6087 54.3645L18.6524 55.855L19.0003 56.2935V57.0821L18.739 57.8712L18.5653 58.9233L18.6524 60.5893L18.0434 59.888L17.6957 58.5727L18.0434 57.2577L18.1304 56.5564L17.8698 56.0301L18.1304 55.2411L18.9132 54.2769L20.2175 53.1371L21.6091 51.9099L21.6957 52.3479Z" fill="black"/>
<path id="Vector_67" fill-rule="evenodd" clip-rule="evenodd" d="M20.8265 51.2959L21.9569 50.6823L23.087 50.2439L23.8697 50.3317L23.4349 50.6823L22.3914 51.1207L21.522 51.2959L20.8265 51.9971V51.2959Z" fill="black"/>
<path id="Vector_68" fill-rule="evenodd" clip-rule="evenodd" d="M24.9132 51.2959L25.0003 51.822L24.7394 52.4357L24.6523 53.1371L24.8265 53.7511L25.2605 54.189L26.0435 54.2769L26.6524 54.189L26.913 55.066L27.696 55.4166L28.3049 55.066L28.5654 54.2769L28.6518 52.962L29.5226 51.9099L29.4348 50.9453L28.8274 51.2959L28.479 51.9972L27.696 52.8742L27.8702 53.7511L27.7824 54.6275L27.4355 54.3646L27.2613 53.5755L26.566 53.1371L26.0435 53.5755L25.5225 53.3126L25.4347 52.5235L25.9572 51.2959L25.5225 51.033L24.9132 51.2959Z" fill="black"/>
<path id="Vector_69" fill-rule="evenodd" clip-rule="evenodd" d="M31.9566 50.3315L33.0866 51.0328L34.0438 51.2958L33.956 51.9098L32.5655 52.9618L30.7389 54.7152L33.4349 53.1369L33.956 53.4876L34.218 54.978L33.6091 55.4164L32.9138 55.5916L31.8703 56.8192L31.0872 57.959L30.5647 58.748L29.7831 59.2738L29.1742 59.3616L29.2606 60.1508L29.0001 61.115L28.3912 61.2903L28.0443 60.9398L27.7823 60.3262L27.6959 59.7122L27.1734 59.3616L26.2177 59.7122L25.2605 60.3262L25.0873 59.7122L26.3918 58.9232L27.5218 58.5726L28.217 58.748V59.5371L28.479 60.5014L28.6517 59.7122L28.9137 58.9232L29.9573 58.5726L31.0008 57.6084L31.6083 56.5562L32.8275 55.2409L33.0866 54.5396L33.0002 53.9261L32.1308 54.5396L30.9131 55.3286L30.13 55.9426L29.6089 55.3286L30.7389 53.9261L31.6961 52.874L33.0002 51.9098L32.1308 51.208L31.3478 50.3315H31.9566Z" fill="black"/>
<path id="Vector_70" fill-rule="evenodd" clip-rule="evenodd" d="M42.1319 60.8521L39.0875 62.2554L39.2603 63.6573L39.0012 65.1477L38.827 66.1128L38.6528 66.9008L39.5222 67.5147L40.8264 68.4798L41.3489 68.3913L41.0005 67.8659L40.3053 67.0779L39.5222 66.6381L39.7828 64.885L40.1311 63.3075L40.3053 62.6052L41.3489 61.9042L42.1319 61.7286V60.8521Z" fill="black"/>
<path id="Vector_71" fill-rule="evenodd" clip-rule="evenodd" d="M24.3045 60.063L23.7829 60.9398V61.9042L24.4786 62.518L25.3483 62.8692L25.9571 62.3425L26.2177 61.8157L26.9129 62.2554L26.3041 62.6051L26.2177 63.219L26.566 63.6573L27.6096 64.2712L27.7823 63.7458L27.3476 63.3946L27.2613 63.0434L27.6096 62.6051L27.696 62.1669L27.3476 61.4659L26.7388 61.0275L26.0435 61.115L25.5224 61.8157L25.0873 62.0798L24.3915 61.7286L24.4786 61.115L24.8265 60.5014L24.3045 60.063Z" fill="black"/>
<path id="Vector_72" fill-rule="evenodd" clip-rule="evenodd" d="M23.3482 48.7534L25.3483 48.4904L26.3918 48.3149L27.2613 48.7534L26.6524 50.5066L26.0435 49.9808L24.8265 49.8054L23.7829 49.5424L24.4786 49.2794L25.6088 49.3674L26.2177 49.5424L26.6524 49.0163L25.6952 48.929H24.8265L23.2611 49.2794L23.3482 48.7534Z" fill="black"/>
</g>
</g>
<defs>
<filter id="filter0_d_62_90" x="0" y="0" width="52.0001" height="90" filterUnits="userSpaceOnUse" color-interpolation-filters="sRGB">
<feFlood flood-opacity="0" result="BackgroundImageFix"/>
<feColorMatrix in="SourceAlpha" type="matrix" values="0 0 0 0 0 0 0 0 0 0 0 0 0 0 0 0 0 0 127 0" result="hardAlpha"/>
<feOffset dy="4"/>
<feGaussianBlur stdDeviation="2"/>
<feComposite in2="hardAlpha" operator="out"/>
<feColorMatrix type="matrix" values="0 0 0 0 0 0 0 0 0 0 0 0 0 0 0 0 0 0 0.25 0"/>
<feBlend mode="normal" in2="BackgroundImageFix" result="effect1_dropShadow_62_90"/>
<feBlend mode="normal" in="SourceGraphic" in2="effect1_dropShadow_62_90" result="shape"/>
</filter>
</defs>
</svg>
