<svg width="44" height="21" viewBox="0 0 44 21" fill="none" xmlns="http://www.w3.org/2000/svg">
<path d="M11.128 0C5.35599 0 0.675995 4.702 0.675995 10.5C0.675995 16.298 5.35599 21 11.128 21C16.9 21 21.579 16.299 21.579 10.5C21.58 4.702 16.901 0 11.128 0ZM11.128 15.154C8.56899 15.154 6.495 13.07 6.495 10.5C6.495 7.93 8.56999 5.846 11.128 5.846C13.686 5.846 15.76 7.93 15.76 10.5C15.761 13.07 13.687 15.154 11.128 15.154Z" fill="#0066FF"/>
<path d="M32.728 0C26.956 0 22.276 4.702 22.276 10.5C22.276 16.298 26.956 21 32.728 21C38.5 21 43.178 16.299 43.178 10.5C43.18 4.702 38.5 0 32.728 0ZM32.728 15.154C30.169 15.154 28.095 13.07 28.095 10.5C28.095 7.93 30.17 5.846 32.728 5.846C35.286 5.846 37.36 7.93 37.36 10.5C37.36 13.07 35.286 15.154 32.728 15.154Z" fill="#0066FF"/>
</svg>
